<svg version="1" xmlns="http://www.w3.org/2000/svg" width="237.333" height="237.333" viewBox="0 0 178.000000 178.000000"><path d="M53.8 20.5c-.2.2-3 .6-6.4.9-6.4.6-21.8 4.7-26.2 7-5 2.6-7.5 6.2-8 11.5-.7 7.7.2 10.1 4 10.1 6.4 0 12 5.5 13.3 13.1C31.7 69.8 32.7 85 32 87c0 .3-.3 2.1-.5 4-1.6 15.1-8.1 28.1-14.7 29.5-5.5 1.1-11.7 5.3-12.5 8.3-1 3.9-1 4.2.3 9.5 1.8 6.8 7.2 15.4 10.8 17.1 6.1 2.8 23.5 4 34 2.2 9.4-1.6 16.3-7.1 20.3-16.3 1.9-4.4 1.9-4.3 3.1-10.3.9-4.4.9-4.5 1.6-1.5.4 1.6 1 3.7 1.3 4.5.3.8.8 2.4 1 3.5.2 1.1.9 3.6 1.7 5.5.8 1.9 1.4 3.9 1.5 4.5.6 3.9 2.4 8.7 3.7 9.2 1.9.7 6.4-.5 6.4-1.8 0-.5.9-2.2 1.9-3.7 1.1-1.5 2.3-4.5 2.6-6.7.4-2.2.9-5.4 1.2-7 .5-3.3 6-28.8 6.8-32 .3-1.1.7-3.4 1-5 1.2-8.9 8.4-35.7 9.8-36.6.5-.3.8-.9.8-1.3-.3-1.9 0-2.7.8-2.2 2 1.3 5.4 21.8 5.2 31.6 0 2.5-.1 6.2-.1 8.2 0 2.1-.7 6.8-1.4 10.5-1.6 7.5-4.3 10.6-10.2 11.7-7.3 1.4-8.7 11.6-3.4 24.1 4.3 10 10 12.6 27.5 12.8 6.6 0 13.4-.2 15-.6 7-1.4 8.2-1.7 12-3.4 5.3-2.4 7.1-4.6 9.4-12 2.6-8.2 3.4-15.8 2.1-19.8-.9-2.7-1.7-3.4-4.9-3.9-7.1-1.1-11-3.4-14.1-8.3-1.7-2.6-3-5.4-3-6.3 0-.9-.4-2-.9-2.5-1.6-1.6-4.7-20.6-4.5-27.5.2-9.8 1.3-17.2 2.9-19.6 1.8-2.8 7.4-6.2 11.5-7 3.5-.7 6.1-5 5.4-8.9-1.6-8.8-3.4-11-11.1-13.7-16.5-5.8-47.2-3.5-51.1 3.9-.5 1-1.3 3.8-1.6 6.3-.6 4.2-.8 5.6-2.1 12-.2 1.4-.7 3.8-1 5.5-1.5 8-3.8 16.5-4.4 16.5-1.4 0-7.1-17.9-8.6-27-.2-1.4-.7-5.6-1-9.4-.8-8.5-3.1-11.1-10.8-12.2-5.2-.7-17.4-1.3-17.9-.9zm2.3 53.2c1.7 3.8 3.4 7.7 3.9 8.8 1.9 4.4 11 33.8 11 35.6 0 2-1.4 2-8.5-.2-5.9-1.9-10.7-7.8-12.1-15-1-5.3-1.1-19.8-.1-26.4.5-3.3.9-6.8.9-7.8-.1-3.6 2-1.4 4.9 5z"/></svg>